<svg xmlns="http://www.w3.org/2000/svg" xmlns:xlink="http://www.w3.org/1999/xlink" viewBox="0,0,256,256" width="24px" height="24px" fill-rule="nonzero"><g fill="#ffffff" fill-rule="nonzero" stroke="none" stroke-width="1" stroke-linecap="butt" stroke-linejoin="miter" stroke-miterlimit="10" stroke-dasharray="" stroke-dashoffset="0" font-family="none" font-weight="none" font-size="none" text-anchor="none" style="mix-blend-mode: normal"><g transform="scale(10.66667,10.66667)"><path d="M2.85156,1.99609l1.96094,17.88672l7.17969,2.19141l0.36523,-0.11133l6.81445,-2.08008l1.97656,-17.88672zM5.64063,4.49609h12.7168l-1.49023,13.47656l-4.875,1.48828l-4.87305,-1.48828zM7.10352,5.99609v2.5h1.25h5.875l-0.14844,1.26172h-2.08789h-1.25v2.5h1.25h1.79492l-0.20508,1.76172l-1.58984,0.44922l-1.58203,-0.44922l-0.09375,-0.85742l-0.13867,-1.24219l-2.48437,0.27539l0.13672,1.24219l0.2793,2.5293l3.88281,1.09961l3.87891,-1.09766l1.16602,-9.97266h-8.68359z"></path></g></g></svg>